<svg xmlns="http://www.w3.org/2000/svg" width="48" height="48" fill="none" viewBox="0 0 48 48">
    <g clip-path="url(#clip0)">
        <rect width="47" height="47" x=".5" y=".5" fill="#fff" stroke="#CBD6DC" rx="23.5"/>
    </g>
    <path stroke="#68808C" stroke-linecap="round" stroke-linejoin="round" d="M35 16v6h-6"/>
    <path stroke="#68808C" stroke-linecap="round" stroke-linejoin="round" d="M32.49 27c-.65 1.84-1.88 3.419-3.506 4.498-1.625 1.08-3.558 1.603-5.506 1.489-1.948-.114-3.806-.858-5.294-2.12-1.489-1.262-2.527-2.974-2.958-4.877-.43-1.903-.232-3.895.568-5.675.8-1.78 2.155-3.252 3.864-4.194 1.709-.943 3.678-1.304 5.61-1.03 1.932.274 3.723 1.169 5.102 2.549L35 22"/>
    <defs>
        <clipPath id="clip0">
            <path fill="#fff" d="M0 0H48V48H0z"/>
        </clipPath>
    </defs>
</svg>
