<svg xmlns="http://www.w3.org/2000/svg" width="48" height="48" fill="none" viewBox="0 0 48 48">
    <rect width="47" height="47" x=".5" y=".5" fill="#fff" stroke="#CBD6DC" rx="23.5"/>
    <g clip-path="url(#clip0)">
        <path fill="#68808C" fill-rule="evenodd" d="M20.94 14.94c.28-.282.662-.44 1.06-.44h4c.398 0 .78.158 1.06.44.282.28.44.662.44 1.06v1.5h-7V16c0-.398.158-.78.44-1.06zM19.5 17.5V16c0-.663.263-1.299.732-1.768.47-.469 1.105-.732 1.768-.732h4c.663 0 1.299.263 1.768.732.469.47.732 1.105.732 1.768v1.5H33c.276 0 .5.224.5.5s-.224.5-.5.5h-1.5V32c0 .663-.263 1.299-.732 1.768-.47.469-1.105.732-1.768.732H19c-.663 0-1.299-.263-1.768-.732-.469-.47-.732-1.105-.732-1.768V18.5H15c-.276 0-.5-.224-.5-.5s.224-.5.5-.5h4.5zm-2 1V32c0 .398.158.78.44 1.06.28.282.662.44 1.06.44h10c.398 0 .78-.158 1.06-.44.282-.28.44-.662.44-1.06V18.5h-13zm4.5 4c.276 0 .5.224.5.5v6c0 .276-.224.5-.5.5s-.5-.224-.5-.5v-6c0-.276.224-.5.5-.5zm4.5.5c0-.276-.224-.5-.5-.5s-.5.224-.5.5v6c0 .276.224.5.5.5s.5-.224.5-.5v-6z" clip-rule="evenodd"/>
    </g>
    <defs>
        <clipPath id="clip0">
            <path fill="#fff" d="M0 0H24V24H0z" transform="translate(12 12)"/>
        </clipPath>
    </defs>
</svg>
